?xml version="1.0" standalone="no"?>
<!DOCTYPE svg PUBLIC "-//W3C//DTD SVG 20010904//EN"
 "http://www.w3.org/TR/2001/REC-SVG-20010904/DTD/svg10.dtd">
<svg version="1.0" xmlns="http://www.w3.org/2000/svg"
 width="250.000000pt" height="250.000000pt" viewBox="0 0 250.000000 250.000000"
 preserveAspectRatio="xMidYMid meet">
<metadata>
Created by potrace 1.14, written by Peter Selinger 2001-2017
</metadata>
<g transform="translate(0.000000,250.000000) scale(0.100000,-0.100000)"
fill="#000000" stroke="none">
<path d="M1127 2055 c-181 -38 -349 -169 -425 -333 -51 -112 -52 -121 -52
-672 0 -499 1 -516 20 -548 12 -19 38 -41 63 -52 39 -18 70 -20 517 -20 474 0
476 0 520 23 24 12 53 35 64 50 21 28 21 39 21 535 0 561 0 563 -67 701 -37
76 -155 201 -231 245 -123 72 -292 100 -430 71z m289 -25 c145 -39 290 -158
358 -292 66 -131 66 -128 66 -695 l0 -512 -31 -35 c-17 -20 -47 -40 -67 -46
-50 -13 -934 -13 -984 0 -20 6 -50 26 -68 46 l-31 35 3 532 c3 523 3 533 25
591 65 171 192 299 358 361 121 46 242 51 371 15z"/>
<path d="M1100 2004 c-183 -48 -338 -204 -394 -393 -14 -47 -16 -127 -16 -564
l0 -509 29 -29 29 -29 502 0 502 0 29 29 29 29 0 499 c0 549 -1 559 -63 683
-63 126 -214 250 -351 286 -66 18 -226 17 -296 -2z m379 -355 c11 -11 23 -30
27 -43 6 -26 -11 -102 -26 -111 -6 -4 -3 -16 6 -30 13 -20 15 -39 9 -95 -4
-42 -3 -70 2 -70 18 0 45 38 57 81 16 53 39 71 62 47 15 -14 15 -20 0 -70 -25
-88 -99 -140 -166 -116 -43 15 -53 39 -44 114 l6 65 -36 -6 c-22 -5 -41 -3
-50 4 -12 10 -16 -1 -26 -61 -25 -153 -31 -167 -72 -168 -36 0 -37 30 -6 208
16 96 28 175 26 177 -4 4 -87 -11 -92 -16 -2 -2 -6 -23 -10 -46 -5 -36 -4 -41
12 -36 22 5 46 -21 38 -42 -3 -9 -19 -18 -36 -21 -32 -7 -32 -7 -49 -104 -13
-78 -25 -103 -61 -133 -37 -31 -103 -37 -149 -12 -32 16 -41 33 -41 76 0 22 6
30 24 35 30 7 44 -1 56 -32 12 -32 54 -32 74 -1 11 16 36 117 36 144 0 2 -6 3
-14 3 -20 0 -37 25 -30 44 3 9 17 19 30 22 17 4 27 17 34 43 14 49 13 50 -16
48 -15 -1 -31 5 -37 15 -20 30 11 45 137 68 65 11 126 25 135 30 10 5 23 5 31
0 8 -5 18 -6 24 -3 16 11 70 19 93 15 12 -2 31 -13 42 -23z m-641 -666 c2 -8
-6 -13 -20 -14 l-23 0 23 -10 c24 -9 22 -29 -4 -29 -8 0 -14 -7 -14 -16 0 -9
-6 -14 -12 -12 -18 6 -23 79 -6 90 18 11 50 6 56 -9z m232 -1 c46 -37 -9 -106
-59 -75 -26 16 -26 59 1 77 28 20 31 20 58 -2z m189 2 c2 -2 5 -22 6 -44 2
-27 -2 -40 -10 -40 -8 0 -15 6 -18 13 -4 10 -7 10 -18 0 -7 -7 -17 -13 -21
-13 -10 0 -11 84 -1 94 7 7 53 -1 62 -10z m119 -1 c2 -8 -6 -13 -20 -14 -17
-1 -18 -3 -5 -6 9 -2 17 -8 17 -13 0 -5 -8 -14 -17 -19 -16 -9 -16 -10 5 -11
12 0 22 -4 22 -10 0 -5 -16 -10 -35 -10 -35 0 -35 0 -35 43 0 24 3 47 7 51 11
11 56 2 61 -11z m86 11 c21 -8 20 -24 -1 -24 -15 0 -15 -1 1 -13 26 -19 17
-51 -17 -55 -19 -2 -27 1 -27 12 0 9 8 16 18 16 16 1 16 1 0 11 -21 12 -24 45
-5 52 6 3 13 6 14 6 1 1 8 -2 17 -5z m131 -4 c3 -6 -1 -13 -9 -16 -10 -4 -16
-19 -16 -41 0 -43 -23 -41 -28 3 -2 16 -8 32 -14 35 -6 4 -7 12 -4 18 9 14 63
15 71 1z m115 -8 c46 -37 -9 -106 -59 -75 -26 16 -26 59 1 77 28 20 31 20 58
-2z m-803 -8 c5 -15 7 -15 15 0 9 16 38 23 38 9 0 -5 -7 -17 -15 -27 -8 -11
-15 -28 -15 -38 0 -30 -19 -20 -35 18 -8 20 -15 40 -15 45 0 15 20 10 27 -7z
m-107 -174 c-11 -7 -12 -12 -4 -17 9 -6 8 -12 -2 -21 -12 -11 -14 -8 -14 18 0
22 5 30 18 30 14 0 15 -2 2 -10z m180 -21 c0 -26 -3 -30 -22 -27 -29 4 -35 28
-9 35 12 3 21 9 21 14 0 5 2 9 5 9 3 0 5 -14 5 -31z m86 -6 c-8 -15 -15 -23
-16 -16 0 6 -3 19 -7 29 -4 11 -3 15 5 10 6 -3 14 -1 17 5 15 23 16 -1 1 -28z
m274 27 c-11 -7 -12 -12 -4 -17 9 -6 8 -12 -2 -21 -12 -11 -14 -8 -14 18 0 22
5 30 18 30 14 0 15 -2 2 -10z m322 -32 c-5 -21 -6 -21 -12 -2 -8 21 -3 37 10
29 4 -3 6 -15 2 -27z m-812 1 c0 -11 -4 -17 -10 -14 -5 3 -10 13 -10 21 0 8 5
14 10 14 6 0 10 -9 10 -21z m59 -1 c-1 -17 -2 -19 -6 -5 -2 9 -8 17 -13 17 -5
0 -11 -8 -13 -17 -4 -14 -5 -12 -6 5 -1 16 5 22 19 22 14 0 20 -6 19 -22z
m231 2 c0 -11 -6 -20 -14 -20 -18 0 -29 16 -21 30 11 18 35 11 35 -10z m40 3
c0 -15 2 -14 15 3 14 19 14 18 15 -3 0 -16 -6 -23 -20 -23 -11 0 -20 2 -20 4
0 2 -3 11 -6 20 -3 9 -1 16 5 16 6 0 11 -8 11 -17z m74 9 c-6 -4 -14 -14 -17
-22 -4 -10 -6 -8 -6 8 -1 15 5 22 17 22 10 0 13 -3 6 -8z m166 -12 c0 -13 -7
-20 -19 -20 -22 0 -35 15 -26 30 12 19 45 11 45 -10z m40 8 c0 6 5 12 10 12 7
0 7 -7 0 -20 -12 -23 -30 -18 -30 8 0 15 2 15 10 2 6 -10 10 -11 10 -2z m75
-8 c0 -8 -8 -16 -17 -18 -13 -2 -18 3 -18 18 0 15 5 20 18 18 9 -2 17 -10 17
-18z m49 12 c-6 -4 -14 -14 -17 -22 -4 -10 -6 -8 -6 8 -1 15 5 22 17 22 10 0
13 -3 6 -8z m33 -24 c-3 -7 -5 -2 -5 12 0 14 2 19 5 13 2 -7 2 -19 0 -25z
m106 26 c9 -10 -4 -34 -19 -34 -8 0 -14 9 -14 20 0 19 19 27 33 14z m-708
-137 c1 -15 -3 -27 -7 -27 -4 0 -8 5 -8 11 0 8 -5 8 -15 -1 -13 -10 -15 -9
-15 12 0 29 9 40 30 36 9 -2 15 -14 15 -31z m154 -4 c0 -25 -1 -25 -8 -8 -5
11 -7 23 -4 28 8 14 13 7 12 -20z m357 11 c-3 -9 -6 -21 -7 -27 0 -7 -4 -3 -8
8 -9 22 -5 35 11 35 5 0 7 -7 4 -16z m-446 -4 c0 -5 -8 -10 -17 -10 -15 0 -16
-2 -3 -10 13 -8 12 -10 -2 -10 -11 0 -18 8 -18 20 0 13 7 20 20 20 11 0 20 -4
20 -10z m45 0 c-3 -5 -10 -10 -16 -10 -5 0 -9 5 -9 10 0 6 7 10 16 10 8 0 12
-4 9 -10z m115 -10 c0 -13 -7 -20 -20 -20 -13 0 -20 7 -20 20 0 13 7 20 20 20
13 0 20 -7 20 -20z m51 5 c7 18 8 18 8 -3 1 -30 -32 -27 -37 3 -3 20 -3 20 9
0 12 -19 12 -19 20 0z m52 -5 c-3 -11 -7 -20 -9 -20 -2 0 -4 9 -4 20 0 11 4
20 9 20 5 0 7 -9 4 -20z m77 0 c0 -13 -7 -20 -20 -20 -13 0 -20 7 -20 20 0 13
7 20 20 20 13 0 20 -7 20 -20z m63 5 c4 -8 2 -17 -3 -20 -6 -4 -10 2 -10 12
-1 17 -2 17 -15 -1 -15 -19 -15 -19 -15 2 0 25 34 31 43 7z m-353 -15 c0 -5
-8 -10 -17 -10 -15 0 -16 2 -3 10 19 12 20 12 20 0z"/>
<path d="M1353 1578 c-11 -13 -24 -40 -27 -62 l-7 -38 23 16 c12 9 33 16 45
16 16 0 25 8 29 24 15 60 -24 87 -63 44z"/>
<path d="M1023 954 c-8 -20 8 -36 26 -25 15 10 8 41 -9 41 -6 0 -13 -7 -17
-16z"/>
<path d="M1220 960 c0 -5 5 -10 10 -10 6 0 10 5 10 10 0 6 -4 10 -10 10 -5 0
-10 -4 -10 -10z"/>
<path d="M1663 954 c-8 -20 8 -36 26 -25 15 10 8 41 -9 41 -6 0 -13 -7 -17
-16z"/>
<path d="M1110 770 c0 -5 5 -10 10 -10 6 0 10 5 10 10 0 6 -4 10 -10 10 -5 0
-10 -4 -10 -10z"/>
<path d="M1510 770 c0 -5 5 -10 10 -10 6 0 10 5 10 10 0 6 -4 10 -10 10 -5 0
-10 -4 -10 -10z"/>
<path d="M1210 640 c0 -5 5 -10 10 -10 6 0 10 5 10 10 0 6 -4 10 -10 10 -5 0
-10 -4 -10 -10z"/>
<path d="M1390 640 c0 -5 5 -10 10 -10 6 0 10 5 10 10 0 6 -4 10 -10 10 -5 0
-10 -4 -10 -10z"/>
</g>
</svg>
